<?xml version="1.0" encoding="UTF-8"?>
<svg id="a" xmlns="http://www.w3.org/2000/svg" viewBox="0 0 737.38 915.13">
<style>
.wb-mark{fill:#18181b}.wb-cutout{fill:#fff}@media (prefers-color-scheme: dark){.wb-mark{fill:#fff}.wb-cutout{fill:#09090b}}
</style><path d="M368.45,892.47c-3.66,4.85-6.22,9.71-10.86,13.63-9.24,7.81-21.23,11.1-33.71,7.49-9.98-2.88-18.85-10.89-23.3-22.03-8.07-20.23,1.01-43.04,20.59-53.15l8.08-25.65,5.51-20.91-.14-108.39c22.39,1.26,44.25,1.44,67.2.09l.02,108.89,6.7,24.45,6.09,21.06c18.78,9.29,28.54,31.07,22.13,50.93-4.88,15.08-17.16,24.93-31.95,26.12s-28.98-7.26-36.36-22.54Z" class="wb-mark"/><path d="M548.44,839.47c-6,12.17-15.73,20.73-27.69,22.73-13.24,2.2-26.12-2.5-34.45-13.17-16.13-20.65-8.47-50.75,14.94-62.51l4.47-13.51c3.46-10.46,8.31-20.91,8.48-32.15l.73-49.65c.27-18.28,16.74-31.35,34.12-31.29,18.15.06,33.37,14.42,33.6,32.96l.61,47.83c1.83,15.87,8.91,30.13,12.83,45.6,13.92,7.27,22.77,20.81,23.52,36.63.73,15.33-7.64,29.97-21.45,36.45-19.15,8.99-40.36.2-49.71-19.91Z" class="wb-mark"/><path d="M189.53,839.81c-7.46,14.44-19.52,23.13-34.58,23.06s-27.52-9.06-33.31-23.27c-8.21-20.38.92-42.91,20.57-52.96l9.55-29.39c1.78-5.47,4.02-11.11,4.05-16.92l.28-47.81c.11-18.32,15.37-31.91,33.01-32.57,17.82-.67,34.44,13.37,34.59,31.93l.41,48.42c.04,5.14,1.6,10.1,3.1,14.95l9.7,31.32c20.5,10.63,29.26,34.83,19.02,55.73-6.27,12.8-19.09,20.72-32.88,20.52-14.13-.2-26.17-8.29-33.53-23.03Z" class="wb-mark"/><path d="M323.68,642.5l.03-47.59c0-9.75-4.15-19-11.55-24.27-7.94-5.64-17.88-6.7-27.09-3.26-11.68,4.36-18.31,15.02-18.31,27.52v42.79s-23.59-3.53-23.59-3.53l-47.8-9.17-.2-32.92c-.09-15.15-12.85-26.39-27.41-26.65-14.59-.26-27.66,10.17-28.78,25.64l-.38,33.83-42.09,5.97c-19.8,1.44-37.76-6.62-50.83-21.2-16.65-18.57-27.72-50.31-33.7-75.27C3.11,497.27-.63,459.97.09,421.63c1.99-106.33,36.19-211.42,104.58-293.5C174.16,44.73,274.44-4.65,383.89.35c42.67,1.95,83.48,11.81,122.23,30.01,39.34,18.47,74.77,43.61,105.33,74.68,95.54,97.15,136.31,235.06,123.71,369.49-4.08,43.59-14.81,91.93-38.9,128.03-13.01,19.49-34.43,30.15-57.78,28.35l-41.54-5.67-.31-34.37c-.13-14.75-13.5-25.35-27.59-25.39-13.88-.03-26.65,9.98-28.17,24.7l-.5,34.74c-23.38,5.67-46.6,9.88-71.34,12.96l-.49-45.98c-.16-15.36-14.06-26.66-28.56-26.42-15.07.25-27.76,11.79-27.81,27.42l-.18,49.45c-29.5,2.09-58.41,1.6-88.31.15Z" class="wb-mark"/><path class="wb-cutout" d="M435.46,441.35c-59.85,27.68-129.49,15.24-177.65-29.04-35.71-32.84-56.13-80.22-54.74-129.09,1.28-44.83,20.35-86.35,52.67-117.03,45-42.73,111.3-56.71,169.44-35.02,62.98,23.5,105.3,83.56,108.1,149.52,2.91,68.41-35.02,131.62-97.83,160.67Z"/><path d="M360.97,249.81c-11.05,20.55-31.53,32.33-54.45,30.81-20.98-1.4-38.36-14.94-46.74-32.14-9.82-20.17-7.18-42.23,5.25-59.89,10.16-14.42,25.78-22.98,42.54-24.14,17.77-1.23,35.09,5.96,46.63,19.68,15.52,18.46,18.35,44.17,6.77,65.68Z" class="wb-mark"/></svg>